<svg viewBox="0 0 640 300" xmlns="http://www.w3.org/2000/svg" font-family="Helvetica, Arial, sans-serif">
  <rect width="640" height="300" fill="#0d1117"/>
  <text x="320" y="26" fill="#c9d1d9" font-size="16" text-anchor="middle">Volatility Clustering: EWMA Variance Over Time</text>
  <line x1="50" y1="240" x2="600" y2="240" stroke="#30363d"/>
  <line x1="50" y1="60" x2="50" y2="240" stroke="#30363d"/>
  <polyline points="50,225 70,220 90,222 110,150 130,100 150,90 170,120 190,160 210,200 230,215 250,220 270,222 290,180 310,110 330,80 350,95 370,130 390,180 410,210 430,222 450,224 470,150 490,95 510,70 530,90 550,140 570,200 590,220" fill="none" stroke="#a371f7" stroke-width="2"/>
  <rect x="110" y="60" width="100" height="180" fill="#f85149" opacity="0.12"/>
  <rect x="290" y="60" width="80" height="180" fill="#f85149" opacity="0.12"/>
  <rect x="470" y="60" width="80" height="180" fill="#f85149" opacity="0.12"/>
  <text x="160" y="255" fill="#f85149" font-size="10" text-anchor="middle">high-vol cluster</text>
  <text x="330" y="255" fill="#f85149" font-size="10" text-anchor="middle">high-vol cluster</text>
  <text x="510" y="255" fill="#f85149" font-size="10" text-anchor="middle">high-vol cluster</text>
  <text x="320" y="280" fill="#8b949e" font-size="11" text-anchor="middle">Trading days -- large moves cluster together, followed by calm stretches</text>
  <text x="25" y="150" fill="#8b949e" font-size="11" text-anchor="middle" transform="rotate(-90 25 150)">EWMA variance</text>
</svg>
